# This file uses centimeters as units for non-parametric coordinates.

mtllib LeftMHand.mtl
g default
v -2.736198 6.841824 0.051555
v -2.975811 6.841662 0.300015
v -3.487772 7.227246 0.396191
v -2.787735 6.530307 0.238905
v -3.481497 7.409552 0.232692
v -2.951321 6.173213 0.359844
v -3.765109 6.782669 0.529445
v -2.689326 6.486376 0.054762
v -2.670446 6.642939 -0.465567
v -3.938334 7.421077 0.269095
v -4.023881 7.222839 0.410258
v -3.894449 5.877644 0.486227
v -2.842494 6.221566 -0.519601
v -4.079298 6.694847 0.549615
v -3.325774 5.577977 0.310820
v -3.181034 6.399196 -0.894371
v -2.995663 6.500617 -0.828439
v -3.582086 6.767387 -0.896272
v -3.843184 7.139267 -0.872201
v -4.071189 7.434505 -0.153576
v -4.375984 6.978017 0.148121
v -4.268979 6.325355 0.520466
v -2.851851 6.152400 0.106346
v -4.125985 7.347649 -0.509149
v -3.063069 6.101842 -0.708453
v -3.674590 5.348701 0.408628
v -3.942500 7.034510 -0.884139
v -4.100335 7.115415 -0.736762
v -4.471313 5.436411 0.498115
v -3.494409 5.262770 -0.400816
v -3.951113 5.212147 0.291461
v -3.773963 5.912813 -0.863116
v -4.529874 6.679176 -0.305802
v -4.635167 6.220420 0.365406
v -3.550258 5.223709 -0.084054
v -3.785545 5.098933 -0.184575
v -4.240942 6.214561 -0.699101
v -4.100102 5.834662 -0.804879
v -4.806209 6.032015 0.090453
v -4.677999 5.596510 0.435874
v -3.985235 5.125455 -0.199232
v -3.576382 5.290990 -0.536598
v -4.851793 5.679972 0.157649
v -4.771803 5.539432 0.183533
v -3.858384 5.136071 -0.548816
v -4.892944 5.708450 -0.161866
v -4.335382 5.606431 -0.759309
v -4.750478 5.923110 -0.370370
v -4.659373 5.444457 -0.281502
v -4.444554 5.370122 -0.599991
v -4.710711 5.655713 -0.501691
v -2.839884 6.830124 0.013837
v -3.043874 7.013023 0.194161
v -3.024186 6.906688 -0.047594
v -4.906999 5.304906 -1.082990
v -4.804141 5.616308 -0.013237
v -4.835004 5.071996 -1.214242
v -4.787904 5.500303 -0.361782
v -4.153016 5.397861 0.486079
v -4.638368 5.280299 -1.045835
v -4.609900 4.988482 -1.181327
v -4.249683 5.206942 -0.197758
v -4.307074 5.004438 -0.975635
v -3.816726 4.964953 -0.539750
vt 0.144444 0.767528
vt 0.122838 0.811372
vt 0.131852 0.777937
vt 0.130405 0.817989
vt 0.155298 0.742692
vt 0.139806 0.721746
vt 0.132187 0.751583
vt 0.113520 0.741788
vt 0.109578 0.922420
vt 0.121849 0.934607
vt 0.112817 0.904322
vt 0.073336 0.785009
vt 0.104366 0.805898
vt 0.080142 0.812066
vt 0.108309 0.757934
vt 0.056796 0.764411
vt 0.117807 0.879899
vt 0.098172 0.836016
vt 0.118232 0.829679
vt 0.116719 0.845903
vt 0.111410 0.879901
vt 0.102551 0.950154
vt 0.089020 0.855278
vt 0.114794 0.860696
vt 0.046110 0.799732
vt 0.043207 0.735374
vt 0.072663 0.748377
vt 0.075792 0.916543
vt 0.064738 0.901095
vt 0.110181 0.870354
vt 0.043319 0.773011
vt 0.022040 0.766724
vt 0.026928 0.749325
vt 0.075913 0.884885
vt 0.048127 0.813839
vt 0.026513 0.964688
vt 0.017988 0.942886
vt 0.041850 0.954998
vt 0.044795 0.942983
vt 0.047703 0.896855
vt 0.054157 0.861157
vt 0.070072 0.825303
vt 0.045314 0.829138
vt 0.058483 0.838228
vt 0.036795 0.894794
vt 0.036216 0.929793
vt 0.038896 0.850647
vt 0.019774 0.828689
vt 0.040252 0.821310
vt 0.043895 0.874455
vt 0.025363 0.872745
vt 0.966471 0.494222
vt 0.998844 0.517477
vt 0.466458 0.151774
vt 0.434816 0.201911
vt 0.442296 0.169461
vt 0.472708 0.146916
vt 0.426915 0.246987
vt 0.472282 0.138893
vt 0.462329 0.143571
vt 0.466320 0.126290
vt 0.400289 0.212294
vt 0.452294 0.095831
vt 0.423399 0.116713
vt 0.126289 0.761430
vt 0.110898 0.824284
vt 0.095615 0.814370
vt 0.145772 0.953253
vt 0.116261 0.968416
vt 0.081705 0.986093
vt 0.015508 0.925456
vt 0.011995 0.782016
vt 0.970966 0.532336
vt 0.436900 0.178105
vn 0.830637 0.461521 0.311514
vn 0.276112 0.435619 0.856737
vn 0.501316 0.346111 0.793025
vn 0.276112 0.435619 0.856737
vn 0.830637 0.461521 0.311514
vn 0.333095 0.791389 0.512593
vn 0.838416 -0.424208 -0.342207
vn 0.961970 -0.171395 0.212693
vn 0.861782 -0.471990 0.185896
vn 0.101200 -0.067100 0.992601
vn 0.112397 0.103397 0.988269
vn -0.230608 0.081403 0.969636
vn 0.590210 -0.237204 0.771613
vn 0.101200 -0.067100 0.992601
vn 0.349502 -0.552903 0.756404
vn -0.822191 0.501694 0.268897
vn -0.302684 0.814058 0.495674
vn -0.574311 0.818615 -0.006000
vn -0.342582 0.165191 -0.924851
vn -0.017600 0.547509 -0.836614
vn -0.000500 0.046201 -0.998932
vn 0.566603 -0.430802 -0.702404
vn 0.244593 -0.143996 -0.958874
vn 0.575803 -0.079600 -0.813704
vn -0.888518 0.386108 -0.247905
vn -0.574311 0.818615 -0.006000
vn -0.565300 0.738000 -0.368500
vn -0.888518 0.386108 -0.247905
vn -0.822191 0.501694 0.268897
vn -0.574311 0.818615 -0.006000
vn 0.101200 -0.067100 0.992601
vn -0.309003 -0.579906 0.753808
vn 0.349502 -0.552903 0.756404
vn 0.349502 -0.552903 0.756404
vn 0.574599 -0.801999 0.163200
vn 0.653705 -0.569004 0.498904
vn 0.040900 -0.227599 -0.972896
vn -0.248012 0.054103 -0.967245
vn -0.000500 0.046201 -0.998932
vn -0.565300 0.738000 -0.368500
vn -0.582077 0.459182 -0.671073
vn -0.888518 0.386108 -0.247905
vn -0.309003 -0.579906 0.753808
vn -0.009800 -0.894224 0.447512
vn 0.349502 -0.552903 0.756404
vn -0.009800 -0.894224 0.447512
vn -0.280907 -0.959224 0.031301
vn 0.176796 -0.982878 0.051899
vn -0.582077 0.459182 -0.671073
vn -0.342582 0.165191 -0.924851
vn -0.468774 0.089695 -0.878752
vn -0.230608 0.081403 0.969636
vn -0.646924 -0.238409 0.724327
vn -0.309003 -0.579906 0.753808
vn -0.280907 -0.959224 0.031301
vn -0.009800 -0.894224 0.447512
vn -0.309003 -0.579906 0.753808
vn 0.574599 -0.801999 0.163200
vn 0.176796 -0.982878 0.051899
vn 0.643191 -0.736290 -0.210197
vn 0.040900 -0.227599 -0.972896
vn 0.418102 -0.626803 -0.657503
vn -0.305695 -0.185497 -0.933885
vn -0.468774 0.089695 -0.878752
vn -0.811042 0.231512 -0.537228
vn -0.582077 0.459182 -0.671073
vn -0.721773 0.264790 0.639476
vn -0.940794 -0.191799 0.279498
vn -0.646924 -0.238409 0.724327
vn -0.305695 -0.185497 -0.933885
vn -0.248012 0.054103 -0.967245
vn 0.040900 -0.227599 -0.972896
vn -0.943788 0.286196 0.165398
vn -0.940794 -0.191799 0.279498
vn -0.721773 0.264790 0.639476
vn -0.462506 -0.680609 -0.568207
vn -0.305695 -0.185497 -0.933885
vn 0.053499 -0.808187 -0.586491
vn -0.972985 -0.163697 -0.162798
vn -0.940794 -0.191799 0.279498
vn -0.943788 0.286196 0.165398
vn -0.636193 -0.759592 -0.135199
vn -0.309003 -0.579906 0.753808
vn -0.692397 -0.699697 0.176099
vn -0.754965 -0.161093 -0.635671
vn -0.305695 -0.185497 -0.933885
vn -0.462506 -0.680609 -0.568207
vn -0.754965 -0.161093 -0.635671
vn -0.636193 -0.759592 -0.135199
vn -0.972985 -0.163697 -0.162798
vn 0.346892 0.185496 -0.919379
vn 0.359219 0.745040 -0.562030
vn 0.541313 0.455711 -0.706617
vn -0.646924 -0.238409 0.724327
vn -0.940794 -0.191799 0.279498
vn -0.692397 -0.699697 0.176099
vn 0.112397 0.103397 0.988269
vn 0.590210 -0.237204 0.771613
vn 0.501316 0.346111 0.793025
vn 0.276112 0.435619 0.856737
vn 0.501316 0.346111 0.793025
vn 0.736290 0.015400 0.676491
vn 0.830637 0.461521 0.311514
vn 0.276112 0.435619 0.856737
vn 0.333095 0.791389 0.512593
vn -0.302684 0.814058 0.495674
vn -0.369087 0.507082 0.778873
vn 0.736290 0.015400 0.676491
vn 0.501316 0.346111 0.793025
vn 0.590210 -0.237204 0.771613
vn 0.830637 0.461521 0.311514
vn 0.961970 -0.171395 0.212693
vn 0.936869 0.083397 -0.339589
vn 0.736290 0.015400 0.676491
vn 0.590210 -0.237204 0.771613
vn 0.861782 -0.471990 0.185896
vn 0.961970 -0.171395 0.212693
vn 0.276112 0.435619 0.856737
vn -0.369087 0.507082 0.778873
vn -0.176298 0.111599 0.977990
vn 0.112397 0.103397 0.988269
vn 0.101200 -0.067100 0.992601
vn 0.590210 -0.237204 0.771613
vn 0.112397 0.103397 0.988269
vn 0.936869 0.083397 -0.339589
vn 0.961970 -0.171395 0.212693
vn 0.838416 -0.424208 -0.342207
vn -0.369087 0.507082 0.778873
vn -0.302684 0.814058 0.495674
vn -0.822191 0.501694 0.268897
vn 0.861782 -0.471990 0.185896
vn 0.590210 -0.237204 0.771613
vn 0.653705 -0.569004 0.498904
vn 0.936869 0.083397 -0.339589
vn 0.838416 -0.424208 -0.342207
vn 0.566603 -0.430802 -0.702404
vn 0.575803 -0.079600 -0.813704
vn -0.230608 0.081403 0.969636
vn 0.112397 0.103397 0.988269
vn -0.176298 0.111599 0.977990
vn 0.653705 -0.569004 0.498904
vn 0.590210 -0.237204 0.771613
vn 0.349502 -0.552903 0.756404
vn 0.040900 -0.227599 -0.972896
vn -0.000500 0.046201 -0.998932
vn 0.244593 -0.143996 -0.958874
vn -0.230608 0.081403 0.969636
vn -0.176298 0.111599 0.977990
vn -0.369087 0.507082 0.778873
vn -0.721773 0.264790 0.639476
vn 0.574599 -0.801999 0.163200
vn 0.861782 -0.471990 0.185896
vn 0.653705 -0.569004 0.498904
vn 0.838416 -0.424208 -0.342207
vn 0.861782 -0.471990 0.185896
vn 0.643191 -0.736290 -0.210197
vn -0.582077 0.459182 -0.671073
vn -0.017600 0.547509 -0.836614
vn -0.342582 0.165191 -0.924851
vn -0.822191 0.501694 0.268897
vn -0.721773 0.264790 0.639476
vn -0.369087 0.507082 0.778873
vn 0.349502 -0.552903 0.756404
vn -0.009800 -0.894224 0.447512
vn 0.176796 -0.982878 0.051899
vn 0.574599 -0.801999 0.163200
vn -0.230608 0.081403 0.969636
vn -0.309003 -0.579906 0.753808
vn 0.101200 -0.067100 0.992601
vn 0.838416 -0.424208 -0.342207
vn 0.643191 -0.736290 -0.210197
vn 0.566603 -0.430802 -0.702404
vn 0.053499 -0.808187 -0.586491
vn 0.418102 -0.626803 -0.657503
vn 0.643191 -0.736290 -0.210197
vn 0.176796 -0.982878 0.051899
vn 0.040900 -0.227599 -0.972896
vn 0.244593 -0.143996 -0.958874
vn 0.566603 -0.430802 -0.702404
vn -0.468774 0.089695 -0.878752
vn -0.342582 0.165191 -0.924851
vn -0.000500 0.046201 -0.998932
vn 0.861782 -0.471990 0.185896
vn 0.574599 -0.801999 0.163200
vn 0.643191 -0.736290 -0.210197
vn 0.040900 -0.227599 -0.972896
vn 0.566603 -0.430802 -0.702404
vn 0.418102 -0.626803 -0.657503
vn -0.000500 0.046201 -0.998932
vn -0.248012 0.054103 -0.967245
vn -0.468774 0.089695 -0.878752
vn -0.943788 0.286196 0.165398
vn -0.822191 0.501694 0.268897
vn -0.888518 0.386108 -0.247905
vn -0.943788 0.286196 0.165398
vn -0.721773 0.264790 0.639476
vn -0.822191 0.501694 0.268897
vn -0.721773 0.264790 0.639476
vn -0.646924 -0.238409 0.724327
vn -0.230608 0.081403 0.969636
vn 0.418102 -0.626803 -0.657503
vn 0.566603 -0.430802 -0.702404
vn 0.643191 -0.736290 -0.210197
vn -0.582077 0.459182 -0.671073
vn -0.811042 0.231512 -0.537228
vn -0.888518 0.386108 -0.247905
vn -0.309003 -0.579906 0.753808
vn -0.646924 -0.238409 0.724327
vn -0.692397 -0.699697 0.176099
vn -0.636193 -0.759592 -0.135199
vn -0.462506 -0.680609 -0.568207
vn 0.053499 -0.808187 -0.586491
vn -0.280907 -0.959224 0.031301
vn 0.418102 -0.626803 -0.657503
vn 0.053499 -0.808187 -0.586491
vn -0.305695 -0.185497 -0.933885
vn -0.888518 0.386108 -0.247905
vn -0.972985 -0.163697 -0.162798
vn -0.943788 0.286196 0.165398
vn -0.309003 -0.579906 0.753808
vn -0.636193 -0.759592 -0.135199
vn -0.280907 -0.959224 0.031301
vn 0.053499 -0.808187 -0.586491
vn 0.176796 -0.982878 0.051899
vn -0.280907 -0.959224 0.031301
vn -0.305695 -0.185497 -0.933885
vn -0.468774 0.089695 -0.878752
vn -0.248012 0.054103 -0.967245
vn -0.888518 0.386108 -0.247905
vn -0.811042 0.231512 -0.537228
vn -0.972985 -0.163697 -0.162798
vn -0.636193 -0.759592 -0.135199
vn -0.692397 -0.699697 0.176099
vn -0.940794 -0.191799 0.279498
vn -0.972985 -0.163697 -0.162798
vn -0.754965 -0.161093 -0.635671
vn -0.468774 0.089695 -0.878752
vn -0.305695 -0.185497 -0.933885
vn -0.754965 -0.161093 -0.635671
vn -0.811042 0.231512 -0.537228
vn -0.468774 0.089695 -0.878752
vn -0.972985 -0.163697 -0.162798
vn -0.811042 0.231512 -0.537228
vn -0.754965 -0.161093 -0.635671
vn -0.754965 -0.161093 -0.635671
vn -0.462506 -0.680609 -0.568207
vn -0.636193 -0.759592 -0.135199
vn -0.609397 -0.789996 0.067400
vn -0.056097 -0.961955 0.267387
vn -0.432679 -0.646969 0.627870
vn 0.274994 0.925681 -0.259795
vn 0.359219 0.745040 -0.562030
vn -0.302813 0.680030 -0.667730
vn 0.463203 0.862406 -0.204201
vn 0.274994 0.925681 -0.259795
vn 0.345406 0.906015 -0.244604
vn 0.346892 0.185496 -0.919379
vn -0.197999 0.270299 -0.942197
vn -0.302813 0.680030 -0.667730
vn 0.359219 0.745040 -0.562030
vn 0.502618 0.814128 -0.290810
vn 0.359219 0.745040 -0.562030
vn 0.274994 0.925681 -0.259795
vn 0.463203 0.862406 -0.204201
vn 0.449690 0.892380 -0.037899
vn 0.463203 0.862406 -0.204201
vn 0.345406 0.906015 -0.244604
vn 0.359219 0.745040 -0.562030
vn 0.502618 0.814128 -0.290810
vn 0.541313 0.455711 -0.706617
vn 0.830637 0.461521 0.311514
vn 0.736290 0.015400 0.676491
vn 0.961970 -0.171395 0.212693
s off
g Stone:Mesh
usemtl Stone:STONE
f 1/1/1 3/2/2 2/3/3
f 3/2/4 1/1/5 5/4/6
f 13/6/7 8/7/8 23/8/9
f 12/12/10 7/13/11 22/14/12
f 6/15/13 12/12/14 26/16/15
f 21/18/16 10/19/17 20/20/18
f 27/21/19 19/17/20 18/11/21
f 25/22/22 16/9/23 17/10/24
f 33/23/25 20/20/26 24/24/27
f 33/23/28 21/18/29 20/20/30
f 12/12/31 29/25/32 26/16/33
f 26/16/34 35/26/35 15/27/36
f 32/28/37 38/29/38 18/11/39
f 24/24/40 28/30/41 33/23/42
f 29/25/43 31/31/44 26/16/45
f 31/31/46 41/32/47 36/33/48
f 28/30/49 27/21/50 37/34/51
f 22/14/52 40/35/53 29/25/54
f 41/32/55 31/31/56 29/25/57
f 35/36/58 36/37/59 30/38/60
f 32/28/61 42/39/62 47/40/63
f 37/34/64 48/41/65 28/30/66
f 34/42/67 43/43/68 40/35/69
f 47/40/70 38/29/71 32/28/72
f 39/44/73 43/43/74 34/42/75
f 50/45/76 47/40/77 45/46/78
f 46/47/79 43/43/80 39/44/81
f 49/48/82 29/25/83 44/49/84
f 51/50/85 47/40/86 50/45/87
f 51/50/88 49/51/89 46/47/90
f 61/59/91 60/60/92 63/61/93
f 40/35/94 43/43/95 44/49/96
f 7/13/97 6/15/98 2/3/99 3/2/100
f 2/3/101 4/65/102 1/1/103
f 3/2/104 5/4/105 10/19/106 11/66/107
f 4/65/108 2/3/109 6/15/110
f 1/1/111 8/7/112 9/5/113
f 4/65/114 6/15/115 23/8/116 8/7/117
f 3/2/118 11/66/119 14/67/120 7/13/121
f 12/12/122 6/15/123 7/13/124
f 9/5/125 8/7/126 13/6/127
f 11/66/128 10/19/129 21/18/130
f 23/8/131 6/15/132 15/27/133
f 9/68/134 13/69/135 25/22/136 17/10/137
f 22/14/138 7/13/139 14/67/140
f 15/27/141 6/15/142 26/16/143
f 32/28/144 18/11/145 16/9/146
f 22/14/147 14/67/148 11/66/149 34/42/150
f 35/26/151 23/8/152 15/27/153
f 13/69/154 23/70/155 30/38/156
f 28/30/157 19/17/158 27/21/159
f 21/18/160 34/42/161 11/66/162
f 26/16/163 31/31/164 36/33/165 35/26/166
f 22/14/167 29/25/168 12/12/169
f 13/69/170 30/38/171 25/22/172
f 45/46/173 42/39/174 30/38/175 36/37/176
f 32/28/177 16/9/178 25/22/179
f 37/34/180 27/21/181 18/11/182
f 23/70/183 35/36/184 30/38/185
f 32/28/186 25/22/187 42/39/188
f 18/11/189 38/29/190 37/34/191
f 39/44/192 21/18/193 33/23/194
f 39/44/195 34/42/196 21/18/197
f 34/42/198 40/35/199 22/14/200
f 42/39/201 25/22/202 30/38/203
f 28/30/204 48/41/205 33/23/206
f 29/25/207 40/35/208 44/49/209
f 49/51/210 50/45/211 45/46/212 41/71/213
f 42/39/214 45/46/215 47/40/216
f 33/23/217 46/47/218 39/44/219
f 29/25/220 49/72/221 41/32/222
f 45/46/223 36/37/224 41/71/225
f 47/40/226 37/34/227 38/29/228
f 33/23/229 48/41/230 46/47/231
f 49/48/232 44/49/233 43/43/234 46/47/235
f 51/50/236 37/34/237 47/40/238
f 51/50/239 48/41/240 37/34/241
f 46/47/242 48/41/243 51/50/244
f 51/50/245 50/45/246 49/51/247
f 54/53/248 52/73/249 53/52/250
f 58/56/251 60/60/252 55/54/253
f 62/62/254 58/74/255 56/55/256
f 61/59/257 57/57/258 55/54/259 60/60/260
f 64/63/261 60/60/262 58/56/263 62/64/264
f 59/58/265 62/62/266 56/55/267
f 60/60/268 64/63/269 63/61/270
f 1/1/271 4/65/272 8/7/273
