# This file uses centimeters as units for non-parametric coordinates.

mtllib LeftUpper.mtl
g default
v -2.770449 6.896861 -0.300377
v -3.485602 7.468153 0.059161
v -3.335463 7.291249 -0.357485
v -2.981935 6.912269 -0.663472
v -3.700798 7.218845 -0.741109
v -3.805219 7.454235 -0.345679
v -3.038546 6.752062 -0.819935
v -3.582086 6.767387 -0.896272
v -3.843184 7.139267 -0.872201
v -3.942500 7.034510 -0.884139
v -2.675174 7.545691 -0.957660
v -2.557352 8.510373 -0.795265
v -2.673320 6.988039 -0.581001
v -2.968149 7.179419 -0.826879
v -2.868768 8.396908 -0.804642
v -2.566264 8.667786 -0.171990
v -2.244703 8.612103 -0.025807
v -2.088757 8.455898 0.138672
v -2.173731 7.731566 0.550451
v -2.380662 7.372856 0.456371
v -2.845816 6.862878 -0.407003
v -2.460799 7.038507 0.248869
v -2.897806 8.535950 -0.600478
v -3.314006 7.291238 -0.737869
v -2.723971 8.624481 0.109263
v -2.341177 8.512201 0.268631
v -2.253447 8.236159 0.455519
v -2.059561 8.059753 0.458288
v -3.419121 7.907926 -0.677241
v -3.197149 8.319707 -0.410912
v -2.942131 8.625650 -0.023400
v -3.155776 7.854370 0.375886
v -3.742211 7.698669 -0.374990
v -2.857850 8.464385 0.270709
v -3.298700 7.432986 0.302003
v -3.332851 7.380815 0.201166
v -3.451307 8.114534 -0.395781
v -3.046945 8.232222 0.285612
v -3.043874 7.013023 0.194161
v -3.024186 6.906688 -0.047594
v -3.163303 8.281802 0.186450
v -3.580194 7.607170 0.220917
v -3.455612 7.976660 0.186267
v -2.180296 8.516075 0.372019
v -2.164403 7.129104 0.592016
v -2.172027 8.592716 0.422110
v -2.177924 8.078098 0.621829
v -2.211612 8.191873 0.892575
v -1.968062 8.729609 0.515780
v -2.177656 7.481422 0.724446
v -2.273002 7.912364 0.872999
v -2.132836 7.982043 1.017924
v -1.934762 7.968348 1.133485
v -1.794474 8.595415 1.065775
vt 0.166066 0.763944
vt 0.157623 0.827734
vt 0.137944 0.826201
vt 0.124775 0.879167
vt 0.149467 0.873910
vt 0.144365 0.920666
vt 0.130798 0.855308
vt 0.130608 0.923713
vt 0.112817 0.904322
vt 0.117807 0.879899
vt 0.111410 0.879901
vt 0.916315 0.373354
vt 0.885423 0.397059
vt 0.951300 0.352327
vt 0.896439 0.399560
vt 0.877469 0.421571
vt 0.938363 0.376280
vt 0.966062 0.361912
vt 0.893484 0.407830
vt 0.920916 0.405024
vt 0.941101 0.391843
vt 0.884164 0.433792
vt 0.861549 0.428757
vt 0.849739 0.447346
vt 0.870052 0.445432
vt 0.924909 0.532395
vt 0.892296 0.427580
vt 0.871139 0.462889
vt 0.880153 0.492373
vt 0.864352 0.476465
vt 0.903240 0.507951
vt 0.966471 0.494222
vt 0.919565 0.450915
vt 0.997198 0.389707
vt 0.905557 0.415003
vt 0.961123 0.455043
vt 0.916268 0.415841
vt 0.932126 0.414990
vt 0.891620 0.439846
vt 0.904330 0.443777
vt 0.907200 0.435658
vt 0.959627 0.446689
vt 0.938057 0.436824
vt 0.922510 0.435475
vt 0.998844 0.517477
vt 0.166074 0.933608
vt 0.946820 0.454465
vt 0.387669 0.682700
vt 0.255505 0.063206
vt 0.256196 0.076183
vt 0.226989 0.065461
vt 0.223998 0.078463
vt 0.397069 0.722315
vt 0.397635 0.694078
vt 0.268052 0.070308
vt 0.288217 0.054751
vt 0.268424 0.079815
vt 0.271824 0.090466
vt 0.224516 0.091342
vt 0.248850 0.099641
vn 0.763079 0.628683 -0.149896
vn 0.444283 0.836868 -0.319788
vn 0.350116 0.933943 0.071903
vn 0.220996 0.777487 -0.588790
vn 0.444283 0.836868 -0.319788
vn 0.560702 0.615202 -0.554202
vn 0.350116 0.933943 0.071903
vn 0.444283 0.836868 -0.319788
vn 0.034599 0.941585 -0.334995
vn 0.447500 0.307100 -0.839901
vn -0.000500 0.046201 -0.998932
vn -0.017600 0.547509 -0.836614
vn 0.034599 0.941585 -0.334995
vn 0.220996 0.777487 -0.588790
vn -0.017600 0.547509 -0.836614
vn -0.342582 0.165191 -0.924851
vn -0.017600 0.547509 -0.836614
vn -0.000500 0.046201 -0.998932
vn -0.168897 -0.561890 -0.809786
vn 0.113396 -0.771875 -0.625580
vn -0.147305 -0.945034 -0.291911
vn 0.026801 0.717620 -0.695919
vn -0.374311 0.478314 -0.794423
vn -0.426804 0.827808 -0.364104
vn -0.596022 0.286211 -0.750228
vn -0.110502 -0.143803 -0.983418
vn -0.638792 -0.449394 -0.624492
vn -0.084895 0.904851 0.417178
vn 0.363211 0.918229 0.157905
vn 0.028299 0.998167 -0.053498
vn 0.642419 0.662619 0.385011
vn 0.363211 0.918229 0.157905
vn 0.193889 0.747559 0.635265
vn -0.110502 -0.143803 -0.983418
vn -0.596022 0.286211 -0.750228
vn -0.374311 0.478314 -0.794423
vn -0.473296 0.864793 0.167699
vn 0.028299 0.998167 -0.053498
vn -0.426804 0.827808 -0.364104
vn 0.193889 0.747559 0.635265
vn 0.363211 0.918229 0.157905
vn -0.084895 0.904851 0.417178
vn 0.149497 0.421792 0.894283
vn 0.642419 0.662619 0.385011
vn 0.193889 0.747559 0.635265
vn 0.186907 -0.055002 0.980837
vn 0.533376 0.343785 0.772866
vn 0.149497 0.421792 0.894283
vn 0.166399 -0.757396 0.631397
vn 0.005900 -0.366794 0.930284
vn -0.432679 -0.646969 0.627870
vn -0.281411 0.132205 0.950437
vn 0.005900 -0.366794 0.930284
vn 0.186907 -0.055002 0.980837
vn -0.147305 -0.945034 -0.291911
vn -0.609397 -0.789996 0.067400
vn -0.638792 -0.449394 -0.624492
vn -0.596022 0.286211 -0.750228
vn -0.681133 0.701634 -0.209210
vn -0.374311 0.478314 -0.794423
vn -0.701474 -0.651075 0.289889
vn -0.638792 -0.449394 -0.624492
vn -0.609397 -0.789996 0.067400
vn -0.681133 0.701634 -0.209210
vn -0.596022 0.286211 -0.750228
vn -0.716226 0.669425 -0.197207
vn -0.980461 -0.068797 -0.184293
vn -0.596022 0.286211 -0.750228
vn -0.638792 -0.449394 -0.624492
vn -0.716226 0.669425 -0.197207
vn -0.596022 0.286211 -0.750228
vn -0.980461 -0.068797 -0.184293
vn -0.295495 0.563190 0.771686
vn 0.193889 0.747559 0.635265
vn -0.084895 0.904851 0.417178
vn -0.356583 0.387181 0.850259
vn 0.186907 -0.055002 0.980837
vn 0.149497 0.421792 0.894283
vn -0.356583 0.387181 0.850259
vn -0.281411 0.132205 0.950437
vn 0.186907 -0.055002 0.980837
vn -0.473296 0.864793 0.167699
vn -0.681133 0.701634 -0.209210
vn -0.629739 0.600537 0.492731
vn -0.473296 0.864793 0.167699
vn -0.295495 0.563190 0.771686
vn -0.084895 0.904851 0.417178
vn -0.681133 0.701634 -0.209210
vn -0.716226 0.669425 -0.197207
vn -0.629739 0.600537 0.492731
vn -0.980461 -0.068797 -0.184293
vn -0.701474 -0.651075 0.289889
vn -0.798615 -0.220204 0.560111
vn -0.629739 0.600537 0.492731
vn -0.716226 0.669425 -0.197207
vn -0.695676 0.441485 0.566680
vn -0.609397 -0.789996 0.067400
vn -0.432679 -0.646969 0.627870
vn -0.701474 -0.651075 0.289889
vn -0.695676 0.441485 0.566680
vn -0.980461 -0.068797 -0.184293
vn -0.798615 -0.220204 0.560111
vn 0.763079 0.628683 -0.149896
vn 0.560702 0.615202 -0.554202
vn 0.444283 0.836868 -0.319788
vn 0.447500 0.307100 -0.839901
vn 0.220996 0.777487 -0.588790
vn 0.560702 0.615202 -0.554202
vn 0.220996 0.777487 -0.588790
vn 0.447500 0.307100 -0.839901
vn -0.017600 0.547509 -0.836614
vn 0.220996 0.777487 -0.588790
vn 0.034599 0.941585 -0.334995
vn 0.444283 0.836868 -0.319788
vn -0.638792 -0.449394 -0.624492
vn -0.110502 -0.143803 -0.983418
vn -0.168897 -0.561890 -0.809786
vn 0.028299 0.998167 -0.053498
vn 0.026801 0.717620 -0.695919
vn -0.426804 0.827808 -0.364104
vn 0.642419 0.662619 0.385011
vn 0.149497 0.421792 0.894283
vn 0.533376 0.343785 0.772866
vn -0.374311 0.478314 -0.794423
vn -0.681133 0.701634 -0.209210
vn -0.426804 0.827808 -0.364104
vn -0.295495 0.563190 0.771686
vn -0.473296 0.864793 0.167699
vn -0.629739 0.600537 0.492731
vn -0.356583 0.387181 0.850259
vn -0.473296 0.864793 0.167699
vn -0.084895 0.904851 0.417178
vn 0.028299 0.998167 -0.053498
vn -0.473296 0.864793 0.167699
vn -0.426804 0.827808 -0.364104
vn -0.681133 0.701634 -0.209210
vn -0.295495 0.563190 0.771686
vn 0.149497 0.421792 0.894283
vn 0.193889 0.747559 0.635265
vn -0.281411 0.132205 0.950437
vn -0.422310 -0.332108 0.843421
vn 0.005900 -0.366794 0.930284
vn -0.701474 -0.651075 0.289889
vn -0.980461 -0.068797 -0.184293
vn -0.638792 -0.449394 -0.624492
vn -0.295495 0.563190 0.771686
vn -0.356583 0.387181 0.850259
vn 0.149497 0.421792 0.894283
vn -0.432679 -0.646969 0.627870
vn 0.005900 -0.366794 0.930284
vn -0.422310 -0.332108 0.843421
vn -0.356583 0.387181 0.850259
vn -0.629739 0.600537 0.492731
vn -0.695676 0.441485 0.566680
vn -0.281411 0.132205 0.950437
vn -0.281411 0.132205 0.950437
vn -0.695676 0.441485 0.566680
vn -0.798615 -0.220204 0.560111
vn -0.422310 -0.332108 0.843421
vn -0.422310 -0.332108 0.843421
vn -0.798615 -0.220204 0.560111
vn -0.701474 -0.651075 0.289889
vn -0.695676 0.441485 0.566680
vn -0.716226 0.669425 -0.197207
vn -0.980461 -0.068797 -0.184293
vn -0.638792 -0.449394 -0.624492
vn -0.168897 -0.561890 -0.809786
vn -0.147305 -0.945034 -0.291911
vn -0.432679 -0.646969 0.627870
vn -0.422310 -0.332108 0.843421
vn -0.701474 -0.651075 0.289889
vn -0.993483 0.006400 -0.113798
vn -0.876205 0.301102 0.376302
vn -0.999822 -0.017700 -0.006500
vn -0.867381 0.467890 0.169496
vn -0.999822 -0.017700 -0.006500
vn -0.876205 0.301102 0.376302
vn -0.993483 0.006400 -0.113798
vn -0.970881 -0.201096 0.130197
vn -0.993729 -0.111803 -0.001500
vn -0.993483 0.006400 -0.113798
vn -0.979405 0.000900 0.201901
vn -0.876205 0.301102 0.376302
vn -0.979405 0.000900 0.201901
vn -0.993483 0.006400 -0.113798
vn -0.993729 -0.111803 -0.001500
vn -0.589496 0.095599 0.802094
vn -0.413214 0.066102 0.908232
vn -0.876205 0.301102 0.376302
vn -0.392995 0.602692 0.694491
vn -0.867381 0.467890 0.169496
vn -0.876205 0.301102 0.376302
vn -0.876205 0.301102 0.376302
vn -0.979405 0.000900 0.201901
vn -0.589496 0.095599 0.802094
vn -0.392995 0.602692 0.694491
vn -0.481291 0.851084 0.209796
vn -0.867381 0.467890 0.169496
vn -0.876205 0.301102 0.376302
vn -0.413214 0.066102 0.908232
vn -0.392995 0.602692 0.694491
s off
g Stone:Mesh
usemtl Stone:STONE
f 1/1/1 3/2/2 2/3/3
f 5/4/4 3/5/5 4/6/6
f 2/3/7 3/2/8 6/7/9
f 7/8/10 8/9/11 9/10/12
f 6/7/13 5/4/14 9/10/15
f 10/11/16 9/10/17 8/9/18
f 14/17/19 13/14/20 21/18/21
f 12/13/22 15/15/23 23/19/24
f 29/20/25 11/12/26 24/21/27
f 25/22/28 17/23/29 16/16/30
f 18/24/31 17/23/32 26/25/33
f 11/12/34 29/20/35 15/15/36
f 31/27/37 16/16/38 23/19/39
f 26/25/40 17/23/41 25/22/42
f 27/28/43 18/24/44 26/25/45
f 19/29/46 28/30/47 27/28/48
f 22/26/49 20/31/50 39/32/51
f 32/33/52 20/31/53 19/29/54
f 21/18/55 40/34/56 24/21/57
f 29/20/58 30/35/59 15/15/60
f 36/36/61 24/21/62 40/34/63
f 30/35/64 29/20/65 37/37/66
f 33/38/67 29/20/68 24/21/69
f 37/37/70 29/20/71 33/38/72
f 34/39/73 26/25/74 25/22/75
f 38/40/76 19/29/77 27/28/78
f 38/40/79 32/33/80 19/29/81
f 31/27/82 30/35/83 41/41/84
f 31/27/85 34/39/86 25/22/87
f 30/35/88 37/37/89 41/41/90
f 33/38/91 36/42/92 42/43/93
f 41/41/94 37/37/95 43/44/96
f 40/45/97 39/32/98 36/42/99
f 43/44/100 33/38/101 42/43/102
f 1/46/103 4/6/104 3/5/105
f 7/8/106 5/4/107 4/6/108
f 5/4/109 7/8/110 9/10/111
f 5/4/112 6/7/113 3/5/114
f 24/21/115 11/12/116 14/17/117
f 16/16/118 12/13/119 23/19/120
f 18/24/121 27/28/122 28/30/123
f 15/15/124 30/35/125 23/19/126
f 34/39/127 31/27/128 41/41/129 38/40/130
f 31/27/131 25/22/132 16/16/133
f 31/27/134 23/19/135 30/35/136
f 34/39/137 27/28/138 26/25/139
f 32/33/140 35/47/141 20/31/142
f 36/36/143 33/38/144 24/21/145
f 34/39/146 38/40/147 27/28/148
f 39/32/149 20/31/150 35/47/151
f 38/40/152 41/41/153 43/44/154 32/33/155
f 32/33/156 43/44/157 42/43/158 35/47/159
f 35/47/160 42/43/161 36/42/162
f 43/44/163 37/37/164 33/38/165
f 24/21/166 14/17/167 21/18/168
f 39/32/169 35/47/170 36/42/171
f 47/49/172 48/50/173 44/51/174
f 46/52/175 44/51/176 48/50/177
f 47/53/178 45/48/179 50/54/180
f 47/49/181 51/55/182 48/50/183
f 51/55/184 47/49/185 50/56/186
f 52/57/187 53/58/188 48/50/189
f 54/60/190 46/52/191 48/50/192
f 48/50/193 51/55/194 52/57/195
f 54/60/196 49/59/197 46/52/198
f 48/50/199 53/58/200 54/60/201
