# This file uses centimeters as units for non-parametric coordinates.

mtllib RightMHand.mtl
g default
v 3.418007 7.172327 0.536330
v 2.954304 6.915618 0.267755
v 3.258357 7.000453 0.329376
v 3.168434 6.850296 -0.193280
v 3.758829 4.897333 -0.363961
v 4.211379 5.043746 -0.786436
v 4.232807 4.968112 -0.982838
v 4.203691 5.246892 0.626331
v 4.422295 5.170619 -0.302399
v 4.957771 5.072434 -1.381292
v 4.619577 5.264317 -0.990280
v 5.034159 5.616431 0.177454
v 5.064018 5.539572 -0.465765
v 5.065171 5.319086 -1.152378
v 5.156807 5.248666 -1.180410
v 3.948086 6.175687 -0.711831
v 4.155158 5.467160 -0.688310
v 4.458228 6.371581 -0.743956
v 4.699360 5.445463 -0.718421
v 3.144161 6.200626 -0.578949
v 4.335345 5.318545 -0.654713
v 3.732450 5.390901 -0.565088
v 3.798364 7.175075 -0.668033
v 4.801615 6.221569 -0.637633
v 4.887546 5.580250 -0.664322
v 3.744326 5.243802 -0.130813
v 4.269108 7.130816 -0.666429
v 4.441327 7.167129 -0.447983
v 4.124638 5.178082 -0.428972
v 2.951726 6.371038 -0.314442
v 4.998785 6.076730 -0.442571
v 4.228551 5.136127 0.035618
v 3.303442 5.842992 0.300610
v 2.961124 6.511135 -0.428014
v 3.146529 6.918698 -0.464066
v 4.738635 6.802198 -0.128964
v 5.097537 5.827760 -0.160199
v 5.067302 5.571162 -0.324559
v 3.983867 5.126010 -0.151091
v 3.004157 6.887970 -0.209433
v 4.743531 6.612143 0.156203
v 4.574626 5.280123 0.319430
v 2.989729 6.375086 0.277555
v 3.270049 6.211304 0.530023
v 4.062831 7.438047 -0.536301
v 3.065044 6.940419 0.127548
v 4.537617 6.388848 0.426728
v 5.051006 5.600494 0.028601
v 4.053176 5.141162 0.335074
v 3.736243 5.270777 0.229654
v 4.360885 5.348967 0.459577
v 2.873621 6.715860 -0.018857
v 3.925542 7.517225 -0.179446
v 4.461585 7.118711 0.239491
v 3.700780 7.361193 0.122176
v 4.797600 5.611203 0.407496
v 5.022538 5.763044 0.142817
v 4.489726 5.671206 0.545414
v 4.170393 7.502306 -0.190711
v 4.307102 7.422624 0.152249
v 4.315270 7.179732 0.504761
v 3.236367 6.513852 0.614292
v 3.790801 6.072734 0.669035
v 3.226552 6.909869 0.472565
v 4.079458 6.361862 0.623294
v 3.893789 7.017512 0.671009
v 2.985995 6.646580 0.395470
v 4.056151 7.264400 0.511464
v 3.553731 6.744930 0.675951
v 4.154364 7.063927 0.650530
vt 0.874610 0.795308
vt 0.871692 0.833822
vt 0.863406 0.646833
vt 0.882027 0.635129
vt 0.883670 0.666094
vt 0.859157 0.816287
vt 0.087267 0.432427
vt 0.127395 0.420892
vt 0.121269 0.445809
vt 0.258945 0.445957
vt 0.143852 0.452581
vt 0.120373 0.458568
vt 0.151175 0.474290
vt 0.169150 0.425260
vt 0.157964 0.465348
vt 0.186583 0.445053
vt 0.218748 0.449753
vt 0.160171 0.471098
vt 0.290753 0.895953
vt 0.284438 0.900626
vt 0.289293 0.879136
vt 0.267728 0.863355
vt 0.258783 0.875262
vt 0.281498 0.917213
vt 0.243039 0.925858
vt 0.255492 0.897414
vt 0.223395 0.881031
vt 0.288775 0.870608
vt 0.275421 0.853101
vt 0.297632 0.908139
vt 0.254220 0.980587
vt 0.297836 0.935653
vt 0.309684 0.956994
vt 0.214804 0.915753
vt 0.232575 0.855009
vt 0.248019 0.841224
vt 0.325408 0.909906
vt 0.329874 0.880262
vt 0.225787 0.930676
vt 0.233623 0.865864
vt 0.253624 0.826860
vt 0.288584 0.844048
vt 0.296316 0.856846
vt 0.214403 0.974602
vt 0.229509 0.939161
vt 0.228004 0.728731
vt 0.240178 0.708832
vt 0.306757 0.726364
vt 0.219579 0.865907
vt 0.258968 0.807891
vt 0.295713 0.804214
vt 0.305325 0.776950
vt 0.315784 0.792670
vt 0.316349 0.752687
vt 0.206965 0.942954
vt 0.189619 0.929239
vt 0.287210 0.787937
vt 0.331858 0.768830
vt 0.205861 0.925843
vt 0.219732 0.833100
vt 0.303712 0.835011
vt 0.293027 0.827459
vt 0.202529 0.716375
vt 0.193446 0.960491
vt 0.247594 0.785178
vt 0.253817 0.757504
vt 0.191385 0.761861
vt 0.187623 0.819473
vt 0.171045 0.768714
vt 0.204928 0.855641
vt 0.215214 0.850469
vt 0.230872 0.828141
vt 0.224060 0.816812
vt 0.213263 0.746879
vt 0.191622 0.731991
vt 0.223979 0.807030
vt 0.215507 0.768431
vt 0.214286 0.812297
vt 0.217316 0.793698
vt 0.240047 0.415590
vt 0.307945 0.921179
vt 0.326505 0.930548
vt 0.319266 0.826593
vt 0.178670 0.946720
vn 0.454702 -0.840404 0.294901
vn -0.035199 -0.908965 0.415384
vn 0.366697 -0.919192 -0.143599
vn -0.439889 0.806180 -0.395690
vn -0.518623 0.827136 -0.216509
vn -0.462986 0.880373 -0.102897
vn -0.439889 0.806180 -0.395690
vn -0.555503 0.479403 -0.679404
vn -0.518623 0.827136 -0.216509
vn -0.462986 0.880373 -0.102897
vn -0.349693 0.936381 0.030099
vn -0.439889 0.806180 -0.395690
vn 0.161894 0.805269 -0.570378
vn -0.048102 0.386512 -0.921029
vn -0.439889 0.806180 -0.395690
vn 0.022899 -0.692579 -0.720978
vn -0.139504 -0.319309 -0.937326
vn 0.324886 -0.571476 -0.753568
vn 0.598404 0.225502 -0.768805
vn 0.324886 -0.571476 -0.753568
vn 0.151406 0.077403 -0.985437
vn -0.504972 -0.583568 -0.635965
vn -0.619892 -0.285796 -0.730790
vn -0.139504 -0.319309 -0.937326
vn -0.115401 -0.024700 -0.993012
vn -0.619892 -0.285796 -0.730790
vn -0.174402 0.304804 -0.936311
vn -0.115401 -0.024700 -0.993012
vn -0.174402 0.304804 -0.936311
vn 0.151406 0.077403 -0.985437
vn 0.627197 -0.274999 -0.728697
vn 0.324886 -0.571476 -0.753568
vn 0.598404 0.225502 -0.768805
vn 0.598404 0.225502 -0.768805
vn 0.898301 0.242500 -0.366400
vn 0.627197 -0.274999 -0.728697
vn -0.016700 -0.914298 -0.404699
vn 0.022899 -0.692579 -0.720978
vn 0.324886 -0.571476 -0.753568
vn -0.747418 -0.553314 0.367709
vn -0.610086 -0.785782 -0.101698
vn -0.598571 -0.705966 0.378582
vn -0.626816 0.439011 -0.643716
vn -0.174402 0.304804 -0.936311
vn -0.619892 -0.285796 -0.730790
vn 0.735604 0.567503 -0.369902
vn 0.891123 0.453712 -0.006800
vn 0.898301 0.242500 -0.366400
vn 0.324886 -0.571476 -0.753568
vn 0.242612 -0.970047 -0.012201
vn -0.016700 -0.914298 -0.404699
vn 0.453789 -0.788581 0.414990
vn 0.242612 -0.970047 -0.012201
vn 0.324886 -0.571476 -0.753568
vn -0.619892 -0.285796 -0.730790
vn -0.821391 0.060999 -0.567094
vn -0.626816 0.439011 -0.643716
vn 0.735604 0.567503 -0.369902
vn 0.598404 0.225502 -0.768805
vn 0.359884 0.381883 -0.851263
vn 0.848526 0.288309 0.443714
vn 0.987390 0.154298 0.035400
vn 0.891123 0.453712 -0.006800
vn 0.987390 0.154298 0.035400
vn 0.850082 -0.486290 -0.202196
vn 0.898301 0.242500 -0.366400
vn 0.324886 -0.571476 -0.753568
vn 0.850082 -0.486290 -0.202196
vn 0.453789 -0.788581 0.414990
vn -0.747418 -0.553314 0.367709
vn -0.881095 -0.341198 0.327498
vn -0.920088 -0.356095 -0.163198
vn -0.538902 -0.361401 0.760903
vn -0.747418 -0.553314 0.367709
vn -0.598571 -0.705966 0.378582
vn 0.848526 0.288309 0.443714
vn 0.573703 0.118101 0.810504
vn 0.619477 -0.215792 0.754772
vn 0.105804 -0.501720 0.858535
vn 0.453789 -0.788581 0.414990
vn 0.619477 -0.215792 0.754772
vn -0.598571 -0.705966 0.378582
vn -0.172107 -0.829633 0.531121
vn -0.538902 -0.361401 0.760903
vn -0.821391 0.060999 -0.567094
vn -0.920088 -0.356095 -0.163198
vn -0.973230 0.227907 0.029701
vn 0.573703 0.118101 0.810504
vn 0.268098 -0.132099 0.954292
vn 0.619477 -0.215792 0.754772
vn -0.172107 -0.829633 0.531121
vn 0.242612 -0.970047 -0.012201
vn 0.453789 -0.788581 0.414990
vn 0.619477 -0.215792 0.754772
vn 0.268098 -0.132099 0.954292
vn 0.105804 -0.501720 0.858535
vn -0.973230 0.227907 0.029701
vn -0.692303 0.687603 0.218901
vn -0.795974 0.568182 -0.208793
vn 0.891123 0.453712 -0.006800
vn 0.735604 0.567503 -0.369902
vn 0.484520 0.839035 0.247510
vn 0.878623 -0.380810 0.288107
vn 0.854321 0.097002 0.510613
vn 0.619477 -0.215792 0.754772
vn 0.453789 -0.788581 0.414990
vn 0.105804 -0.501720 0.858535
vn -0.172107 -0.829633 0.531121
vn -0.747418 -0.553314 0.367709
vn -0.538902 -0.361401 0.760903
vn -0.881095 -0.341198 0.327498
vn -0.881095 -0.341198 0.327498
vn -0.832285 0.138798 0.536690
vn -0.973230 0.227907 0.029701
vn 0.233513 0.001400 0.972353
vn -0.074800 -0.194201 0.978106
vn 0.268098 -0.132099 0.954292
vn -0.535900 0.569700 0.623100
vn -0.356098 0.855596 0.375698
vn -0.692303 0.687603 0.218901
vn 0.735604 0.567503 -0.369902
vn 0.376910 0.922823 -0.079602
vn 0.484520 0.839035 0.247510
vn 0.835724 0.460413 0.299309
vn 0.585487 0.498389 0.639386
vn 0.848526 0.288309 0.443714
vn 0.105804 -0.501720 0.858535
vn 0.268098 -0.132099 0.954292
vn -0.074800 -0.194201 0.978106
vn 0.376910 0.922823 -0.079602
vn -0.122602 0.991617 0.040801
vn 0.484520 0.839035 0.247510
vn -0.538902 -0.361401 0.760903
vn -0.480704 -0.039200 0.876007
vn -0.832285 0.138798 0.536690
vn -0.535900 0.569700 0.623100
vn -0.832285 0.138798 0.536690
vn -0.480704 -0.039200 0.876007
vn 0.585487 0.498389 0.639386
vn 0.835724 0.460413 0.299309
vn 0.484520 0.839035 0.247510
vn 0.573703 0.118101 0.810504
vn 0.585487 0.498389 0.639386
vn 0.275296 0.273996 0.921487
vn -0.535900 0.569700 0.623100
vn -0.480704 -0.039200 0.876007
vn -0.179096 0.168596 0.969278
vn -0.037900 0.783691 0.619993
vn 0.585487 0.498389 0.639386
vn 0.484520 0.839035 0.247510
vn 0.275296 0.273996 0.921487
vn -0.037900 0.783691 0.619993
vn -0.120207 0.360822 0.924856
vn -0.120207 0.360822 0.924856
vn -0.179096 0.168596 0.969278
vn 0.275296 0.273996 0.921487
vn -0.785789 0.612791 -0.083799
vn -0.518623 0.827136 -0.216509
vn -0.555503 0.479403 -0.679404
vn -0.037900 0.783691 0.619993
vn 0.275296 0.273996 0.921487
vn 0.585487 0.498389 0.639386
vn 0.454702 -0.840404 0.294901
vn 0.483181 -0.600877 0.636775
vn -0.035199 -0.908965 0.415384
vn -0.439889 0.806180 -0.395690
vn -0.048102 0.386512 -0.921029
vn -0.555503 0.479403 -0.679404
vn -0.493214 0.866025 0.082102
vn -0.349693 0.936381 0.030099
vn -0.462986 0.880373 -0.102897
vn -0.439889 0.806180 -0.395690
vn -0.349693 0.936381 0.030099
vn -0.100402 0.966917 -0.234504
vn 0.161894 0.805269 -0.570378
vn -0.439889 0.806180 -0.395690
vn -0.100402 0.966917 -0.234504
vn -0.048102 0.386512 -0.921029
vn 0.161894 0.805269 -0.570378
vn 0.655693 0.487094 -0.576894
vn 0.324886 -0.571476 -0.753568
vn -0.139504 -0.319309 -0.937326
vn -0.115401 -0.024700 -0.993012
vn 0.151406 0.077403 -0.985437
vn -0.920088 -0.356095 -0.163198
vn -0.619892 -0.285796 -0.730790
vn -0.504972 -0.583568 -0.635965
vn -0.610086 -0.785782 -0.101698
vn -0.139504 -0.319309 -0.937326
vn -0.619892 -0.285796 -0.730790
vn -0.115401 -0.024700 -0.993012
vn 0.735604 0.567503 -0.369902
vn 0.898301 0.242500 -0.366400
vn 0.598404 0.225502 -0.768805
vn -0.504972 -0.583568 -0.635965
vn -0.016700 -0.914298 -0.404699
vn -0.207696 -0.971183 -0.116898
vn -0.610086 -0.785782 -0.101698
vn 0.151406 0.077403 -0.985437
vn -0.174402 0.304804 -0.936311
vn 0.359884 0.381883 -0.851263
vn 0.151406 0.077403 -0.985437
vn 0.359884 0.381883 -0.851263
vn 0.598404 0.225502 -0.768805
vn -0.747418 -0.553314 0.367709
vn -0.920088 -0.356095 -0.163198
vn -0.610086 -0.785782 -0.101698
vn 0.898301 0.242500 -0.366400
vn 0.891123 0.453712 -0.006800
vn 0.987390 0.154298 0.035400
vn 0.627197 -0.274999 -0.728697
vn 0.898301 0.242500 -0.366400
vn 0.850082 -0.486290 -0.202196
vn 0.627197 -0.274999 -0.728697
vn 0.850082 -0.486290 -0.202196
vn 0.324886 -0.571476 -0.753568
vn -0.920088 -0.356095 -0.163198
vn -0.821391 0.060999 -0.567094
vn -0.619892 -0.285796 -0.730790
vn -0.172107 -0.829633 0.531121
vn -0.598571 -0.705966 0.378582
vn -0.610086 -0.785782 -0.101698
vn -0.207696 -0.971183 -0.116898
vn -0.207696 -0.971183 -0.116898
vn -0.016700 -0.914298 -0.404699
vn 0.242612 -0.970047 -0.012201
vn 0.359884 0.381883 -0.851263
vn -0.174402 0.304804 -0.936311
vn 0.168503 0.787215 -0.593211
vn 0.987390 0.154298 0.035400
vn 0.878623 -0.380810 0.288107
vn 0.850082 -0.486290 -0.202196
vn 0.453789 -0.788581 0.414990
vn 0.850082 -0.486290 -0.202196
vn 0.878623 -0.380810 0.288107
vn -0.172107 -0.829633 0.531121
vn -0.207696 -0.971183 -0.116898
vn 0.242612 -0.970047 -0.012201
vn -0.795974 0.568182 -0.208793
vn -0.626816 0.439011 -0.643716
vn -0.821391 0.060999 -0.567094
vn -0.973230 0.227907 0.029701
vn -0.538902 -0.361401 0.760903
vn -0.172107 -0.829633 0.531121
vn 0.105804 -0.501720 0.858535
vn -0.074800 -0.194201 0.978106
vn 0.359884 0.381883 -0.851263
vn 0.168503 0.787215 -0.593211
vn 0.735604 0.567503 -0.369902
vn 0.848526 0.288309 0.443714
vn 0.619477 -0.215792 0.754772
vn 0.854321 0.097002 0.510613
vn 0.453789 -0.788581 0.414990
vn 0.878623 -0.380810 0.288107
vn 0.619477 -0.215792 0.754772
vn -0.692303 0.687603 0.218901
vn -0.973230 0.227907 0.029701
vn -0.832285 0.138798 0.536690
vn -0.535900 0.569700 0.623100
vn -0.920088 -0.356095 -0.163198
vn -0.881095 -0.341198 0.327498
vn -0.973230 0.227907 0.029701
vn -0.122602 0.991617 0.040801
vn 0.376910 0.922823 -0.079602
vn 0.168503 0.787215 -0.593211
vn 0.168503 0.787215 -0.593211
vn 0.376910 0.922823 -0.079602
vn 0.735604 0.567503 -0.369902
vn 0.848526 0.288309 0.443714
vn 0.891123 0.453712 -0.006800
vn 0.835724 0.460413 0.299309
vn -0.538902 -0.361401 0.760903
vn -0.074800 -0.194201 0.978106
vn -0.480704 -0.039200 0.876007
vn -0.535900 0.569700 0.623100
vn -0.120207 0.360822 0.924856
vn -0.037900 0.783691 0.619993
vn -0.356098 0.855596 0.375698
vn 0.835724 0.460413 0.299309
vn 0.891123 0.453712 -0.006800
vn 0.484520 0.839035 0.247510
vn -0.881095 -0.341198 0.327498
vn -0.538902 -0.361401 0.760903
vn -0.832285 0.138798 0.536690
vn 0.268098 -0.132099 0.954292
vn 0.573703 0.118101 0.810504
vn 0.233513 0.001400 0.972353
vn -0.037900 0.783691 0.619993
vn -0.122602 0.991617 0.040801
vn -0.356098 0.855596 0.375698
vn -0.074800 -0.194201 0.978106
vn 0.233513 0.001400 0.972353
vn -0.179096 0.168596 0.969278
vn -0.120207 0.360822 0.924856
vn -0.535900 0.569700 0.623100
vn -0.179096 0.168596 0.969278
vn 0.484520 0.839035 0.247510
vn -0.122602 0.991617 0.040801
vn -0.037900 0.783691 0.619993
vn 0.233513 0.001400 0.972353
vn 0.573703 0.118101 0.810504
vn 0.275296 0.273996 0.921487
vn -0.480704 -0.039200 0.876007
vn -0.074800 -0.194201 0.978106
vn -0.179096 0.168596 0.969278
vn 0.275296 0.273996 0.921487
vn -0.179096 0.168596 0.969278
vn 0.233513 0.001400 0.972353
vn 0.022899 -0.692579 -0.720978
vn -0.016700 -0.914298 -0.404699
vn -0.504972 -0.583568 -0.635965
vn -0.139504 -0.319309 -0.937326
vn 0.854321 0.097002 0.510613
vn 0.878623 -0.380810 0.288107
vn 0.987390 0.154298 0.035400
vn 0.848526 0.288309 0.443714
vn 0.573703 0.118101 0.810504
vn 0.848526 0.288309 0.443714
vn 0.585487 0.498389 0.639386
s off
g Stone:Mesh
usemtl Stone:STONE
f 3/3/1 2/4/2 4/5/3
f 11/11/4 6/9/5 9/8/6
f 11/11/7 7/12/8 6/9/9
f 9/8/10 12/14/11 11/11/12
f 14/15/13 10/13/14 11/11/15
f 21/19/16 17/20/17 19/21/18
f 24/22/19 19/21/20 18/23/21
f 22/24/22 20/25/23 17/20/24
f 16/26/25 20/25/26 23/27/27
f 16/26/28 23/27/29 18/23/30
f 25/28/31 19/21/32 24/22/33
f 24/22/34 31/29/35 25/28/36
f 29/30/37 21/19/38 19/21/39
f 33/31/40 26/32/41 50/33/42
f 35/34/43 23/27/44 20/25/45
f 28/35/46 36/36/47 31/29/48
f 19/21/49 32/37/50 29/30/51
f 42/38/52 32/37/53 19/21/54
f 20/25/55 34/39/56 35/34/57
f 28/35/58 24/22/59 27/40/60
f 41/41/61 37/42/62 36/36/63
f 37/42/64 38/43/65 31/29/66
f 19/21/67 38/43/68 42/38/69
f 33/31/70 43/44/71 30/45/72
f 44/46/73 33/47/74 50/48/75
f 41/41/76 47/50/77 56/51/78
f 51/52/79 42/53/80 56/51/81
f 50/48/82 49/54/83 44/46/84
f 34/39/85 30/45/86 52/55/87
f 47/50/88 58/57/89 56/51/90
f 49/54/91 32/58/92 42/53/93
f 56/51/94 58/57/95 51/52/96
f 52/55/97 46/56/98 40/59/99
f 36/36/100 28/35/101 60/60/102
f 48/61/103 57/62/104 56/51/105
f 42/53/106 51/52/107 49/54/108
f 33/47/109 44/46/110 43/63/111
f 43/44/112 67/64/113 52/55/114
f 65/65/115 63/66/116 58/57/117
f 64/67/118 55/68/119 46/69/120
f 28/35/121 59/71/122 60/60/123
f 54/72/124 61/73/125 41/41/126
f 51/52/127 58/57/128 63/66/129
f 59/71/130 53/70/131 60/60/132
f 44/46/133 62/74/134 67/75/135
f 64/67/136 67/75/137 62/74/138
f 61/73/139 54/72/140 60/60/141
f 47/50/142 61/73/143 70/76/144
f 64/67/145 62/74/146 69/77/147
f 68/78/148 61/73/149 60/60/150
f 70/76/151 68/78/152 66/79/153
f 66/79/154 69/77/155 70/76/156
f 5/7/157 6/9/158 7/12/159
f 68/78/160 70/76/161 61/73/162
f 3/6/163 1/1/164 2/2/165
f 11/11/166 10/13/167 7/12/168
f 8/10/169 12/17/170 9/80/171
f 11/11/172 12/14/173 13/16/174
f 14/15/175 11/11/176 13/16/177
f 10/13/178 14/15/179 15/18/180
f 19/21/181 17/20/182 16/26/183 18/23/184
f 30/45/185 20/25/186 22/24/187 26/32/188
f 17/20/189 20/25/190 16/26/191
f 28/35/192 31/29/193 24/22/194
f 22/24/195 29/30/196 39/81/197 26/32/198
f 18/23/199 23/27/200 27/40/201
f 18/23/202 27/40/203 24/22/204
f 33/31/205 30/45/206 26/32/207
f 31/29/208 36/36/209 37/42/210
f 25/28/211 31/29/212 38/43/213
f 25/28/214 38/43/215 19/21/216
f 30/45/217 34/39/218 20/25/219
f 49/82/220 50/33/221 26/32/222 39/81/223
f 39/81/224 29/30/225 32/37/226
f 27/40/227 23/27/228 45/49/229
f 37/42/230 48/61/231 38/43/232
f 42/53/233 38/83/234 48/61/235
f 49/82/236 39/81/237 32/37/238
f 40/59/239 35/34/240 34/39/241 52/55/242
f 44/46/243 49/54/244 51/52/245 63/66/246
f 27/40/247 45/49/248 28/35/249
f 41/41/250 56/51/251 57/62/252
f 42/53/253 48/61/254 56/51/255
f 46/56/256 52/55/257 67/64/258 64/84/259
f 30/45/260 43/44/261 52/55/262
f 53/70/263 59/71/264 45/49/265
f 45/49/266 59/71/267 28/35/268
f 41/41/269 36/36/270 54/72/271
f 44/46/272 63/66/273 62/74/274
f 64/67/275 66/79/276 68/78/277 55/68/278
f 54/72/279 36/36/280 60/60/281
f 43/63/282 44/46/283 67/75/284
f 58/57/285 47/50/286 65/65/287
f 68/78/288 53/70/289 55/68/290
f 63/66/291 65/65/292 69/77/293
f 66/79/294 64/67/295 69/77/296
f 60/60/297 53/70/298 68/78/299
f 65/65/300 47/50/301 70/76/302
f 62/74/303 63/66/304 69/77/305
f 70/76/306 69/77/307 65/65/308
f 21/19/309 29/30/310 22/24/311 17/20/312
f 57/62/313 48/61/314 37/42/315 41/41/316
f 47/50/317 41/41/318 61/73/319
